# xmcd CD database file
#
# Track frame offsets:
#	150
#	12112
#	31144
#	46487
#	59073
#	66669
#	78977
#	87674
#	97964
#	106892
#	118289
#	129183
#	145325
#	154849
#	166023
#	183100
#	197712
#	208809
#	217622
#	230886
#	241523
#	251133
#	267148
#	280675
#
# Disc length: 3865 seconds
#
# Revision: 0
# Processed by: cddbd v1.4PL0 Copyright (c) Steve Scherf et al.
# Submitted via: Feurio! 1.66 - http://www.feurio.com
#
DISCID=510f1718
DTITLE=Various Artist - Country Sampler Box - CD 2/2
DYEAR=2003
DGENRE=Country
TTITLE0=Glen Campbell - Galveston
TTITLE1=Ronnie Milsap - Stranger in my house
TTITLE2=BR5 49 - Little Ramona (Gone Hillbilly Nuts)
TTITLE3=Johnny Cash - Locomotion Man
TTITLE4=Glen Campbell - Kentucky means Paradise
TTITLE5=Dave Dudley - Viet Nam Blues
TTITLE6=Johnny Cash - The Rebel Johnny Yuma
TTITLE7=Waylon Jennings - Money (That's What I Want) (Vocal  Gerald W. Gropp)
TTITLE8=Marty Robbins - September In The Rain
TTITLE9=Emmylou Harris - So You Think You're A Cowboy
TTITLE10=Tab Hunter - I'm A Runaway
TTITLE11=Truck Stop - Hey, kleiner Cowboy
TTITLE12=Merle Haggard - Legend Of Bonnie And Clyde
TTITLE13=Tex Ritter - High Noon
TTITLE14=Junior Brown - My Wife Thinks You're Dead
TTITLE15=Truck Stop - Pack Dein Herz in einen Koffer
TTITLE16=Waylon Jennings - Sally Was A Good Ole Girl
TTITLE17=Johnny Cash - One More Ride
TTITLE18=Carl Perkins - Going To Memphis
TTITLE19=Johnny Cash - Run Softly, Blue River
TTITLE20=Waylon Jennings - My Baby Walks All Over Me (Alternate Mix)
TTITLE21=Ronnie Milsap - I'm just a redneck at heart
TTITLE22=Glen Campbell - Southern Nights
TTITLE23=Johnny Cash - All Over Again
EXTD=
EXTT0=
EXTT1=
EXTT2=
EXTT3=
EXTT4=
EXTT5=
EXTT6=
EXTT7=
EXTT8=
EXTT9=
EXTT10=
EXTT11=
EXTT12=
EXTT13=
EXTT14=
EXTT15=
EXTT16=
EXTT17=
EXTT18=
EXTT19=
EXTT20=
EXTT21=
EXTT22=
EXTT23=
PLAYORDER=
